<svg xmlns="http://www.w3.org/2000/svg" viewBox="0 0 653.1 94.94"><defs><style>.cls-1,.cls-4{fill:#1d1d1b;}.cls-2{fill:#e94f2a;}.cls-3{fill:#009fe3;}.cls-4{stroke:#1d1d1b;stroke-linecap:round;stroke-linejoin:round;stroke-width:0.2px;}</style></defs><title>Middel 112</title><g id="Laag_2" data-name="Laag 2"><g id="Laag_1-2" data-name="Laag 1"><path class="cls-1" d="M57.4,10a10,10,0,1,1-10-10,10,10,0,0,1,10,10"/><path class="cls-1" d="M20,47.58a10,10,0,1,1-10-10,10,10,0,0,1,10,10"/><path class="cls-1" d="M94.84,47.58a10,10,0,1,1-10-10,10,10,0,0,1,10,10"/><path class="cls-1" d="M57.4,84.86a10,10,0,1,1-10-10,10,10,0,0,1,10,10"/><path class="cls-2" d="M20,10A10,10,0,1,1,10,0,10,10,0,0,1,20,10"/><path class="cls-2" d="M94.84,10a10,10,0,1,1-10-10,10,10,0,0,1,10,10"/><path class="cls-2" d="M57.4,47.58a10,10,0,1,1-10-10,10,10,0,0,1,10,10"/><path class="cls-2" d="M20,84.86a10,10,0,1,1-10-10,10,10,0,0,1,10,10"/><path class="cls-2" d="M94.84,84.86a10,10,0,1,1-10-10,10,10,0,0,1,10,10"/><path class="cls-1" d="M163.88,33.21c-.52-3-1.3-8.76-1.36-9.73V0h9.53V45.94H161.87l-14-24.14-2.79-6.23-.65.13,1.23,7.84V45.94H136V0h9.41L160,25l3.24,8.31Z"/><polygon class="cls-1" points="226.16 9.34 204.62 9.34 204.62 18.35 224.4 18.35 224.4 27.63 204.62 27.63 204.62 36.72 226.16 36.72 226.16 45.99 195.03 45.99 195.03 0 226.16 0 226.16 9.34"/><polygon class="cls-1" points="281.16 0 281.16 9.59 268 9.59 268 46 258.39 46 258.39 9.59 245.23 9.59 245.23 0 281.16 0"/><path class="cls-1" d="M339.09,45.94H327.35l-13-16.8h-3.36v16.8h-9.62V0h18.1c9.22,0,16.15,4.22,16.41,14.66,0,8.44-3.83,12.53-10.44,13.83ZM319.44,20.45c4.22,0,6.88-1.69,6.88-5.71s-2.86-5.26-6.88-5.13h-8.49V20.45Z"/><path class="cls-1" d="M394.62,15.32V32.58C394.62,53,357,53,357,32.58V15.32c0-20.5,37.62-20.36,37.62,0M366.46,32.58c-.06,7.72,18.63,7.65,18.63,0V15.32c.06-7.91-18.63-7.71-18.63,0Z"/><path class="cls-1" d="M426.6,45.94h-9.48V0h18.1c22,.06,21.73,31.73.07,31.73H426.6Zm8.63-36.33H426.6V22.78h8.63a6.6,6.6,0,1,0,0-13.17"/><path class="cls-1" d="M509.9,15.32V32.58c0,20.38-37.63,20.44-37.63,0V15.32c0-20.5,37.63-20.36,37.63,0M481.74,32.58c-.06,7.72,18.62,7.65,18.62,0V15.32c.06-7.91-18.62-7.71-18.62,0Z"/><polygon class="cls-1" points="561.66 45.94 532.27 45.94 532.27 0 541.82 0 541.82 36.33 561.66 36.33 561.66 45.94"/><rect class="cls-1" x="582.94" width="9.54" height="45.94"/><path class="cls-1" d="M638.47,23.1c2.91,4.55,11.41,18.17,14.53,22.84H641.33l-9.22-16.21-8.5,16.21H611.87L625.42,23,612,0h11.61l8.5,16.35L641.38,0H653Z"/><path class="cls-3" d="M28,58.54a7.59,7.59,0,1,1-7.59,7.6A7.6,7.6,0,0,1,28,58.54"/><path class="cls-3" d="M28,21.73a7.59,7.59,0,1,1-7.59,7.59A7.6,7.6,0,0,1,28,21.73"/><path class="cls-3" d="M66.12,58.54a7.59,7.59,0,1,1-7.59,7.6,7.6,7.6,0,0,1,7.59-7.6"/><path class="cls-3" d="M66.12,21.73a7.59,7.59,0,1,1-7.59,7.59,7.6,7.6,0,0,1,7.59-7.59"/><path class="cls-4" d="M137,70.19h2V94.24h-2Z"/><path class="cls-4" d="M168.5,70.16v2h-8V94.24h-2V72.16h-8v-2Z"/><path class="cls-4" d="M214,77v10.5c0,9.85-19.06,9.85-19.06,0V77C195,67.1,214,67.1,214,77ZM197,87.45c0,7.2,15,7.2,15.05,0V77c0-3.8-3.8-5.4-7.58-5.4S197,73.22,197,77Z"/><path class="cls-4" d="M228.79,94.24h-2V70.19h9.07a7.54,7.54,0,1,1,0,15.05h-7.1Zm7.07-22h-7.07v11h7.07A5.54,5.54,0,1,0,235.86,72.2Z"/><path class="cls-4" d="M271.76,94.24V70.19h8c4.52,0,9,2.07,9,7v10c0,4.93-4.48,7-9,7Zm8-2c3.5,0,7-1.43,7-5v-10c0-3.6-3.5-5-7-5h-6v20Z"/><path class="cls-4" d="M315.88,72.16H302.8v9h12.06v2H302.8v9h13.08v2H300.8V70.16h15.08Z"/><path class="cls-4" d="M350.6,70.19h2.92l8.7,24.05h-2.11l-2.89-8H346.89l-2.82,8H342Zm5.91,14-4.45-12.54L347.6,84.22Z"/><path class="cls-4" d="M388.81,74.27l-1.8.88v0c-2.45-4.92-13.42-4.21-13.42,2.07v9.92c0,6.29,11,7,13.42,2.07l1.8.88c-3.23,6.66-17.22,5.67-17.22-3V77.26C371.59,68.8,385.55,67.51,388.81,74.27Z"/><path class="cls-4" d="M416.19,83.24h-14v11h-2V70.19h2v11h14v-11h2V94.24h-2Z"/><path class="cls-4" d="M447.23,70.16v2h-8V94.24h-2V72.16h-8v-2Z"/><path class="cls-4" d="M473.32,72.16H460.24v9H472.3v2H460.24v9h13.08v2H458.23V70.16h15.08Z"/><path class="cls-4" d="M502.73,94.24h-2.41l-8.08-10.19h-4.59V94.24h-2V70.19h9.07c4.52,0,7.95,2,8.05,7s-3.7,6.86-8,6.86h-.07Zm-8-12c3.7,0,6-1.22,6-5s-2.51-5.06-6-5h-7.1v10Z"/><path class="cls-4" d="M513.63,77.09c0-8.46,13.93-9.72,17.19-3L529,75c-2.41-4.92-13.39-4.21-13.39,2.07V87.18c0,7.17,14,7.17,14,0v-3h-7.37v-2h9.38v5c0,9.89-18,9.89-18,0Z"/><path class="cls-4" d="M561.36,94.24h-2.41l-8.08-10.19h-4.59V94.24h-2V70.19h9.07c4.52,0,7.95,2,8.05,7s-3.7,6.86-8,6.86h-.07Zm-8-12c3.7,0,6-1.22,6-5s-2.51-5.06-6-5h-7.1v10Z"/><path class="cls-4" d="M591.86,77v10.5c0,9.85-19.06,9.85-19.06,0V77C572.8,67.1,591.86,67.1,591.86,77Zm-17.05,10.5c0,7.2,15,7.2,15.05,0V77c0-3.8-3.8-5.4-7.58-5.4s-7.47,1.67-7.47,5.4Z"/><path class="cls-4" d="M607,70.19,620.63,92V70.19h2V94.24h-3l-13-21v21h-2V70.19Z"/><path class="cls-4" d="M636,94.24V70.19h8c4.52,0,9,2.07,9,7v10c0,4.93-4.48,7-9,7Zm8-2c3.5,0,7-1.43,7-5v-10c0-3.6-3.5-5-7-5h-6v20Z"/></g></g></svg>