<svg xmlns="http://www.w3.org/2000/svg" viewBox="0 0 264.49 127.39"><defs><style>.cls-1{fill:#1d1d1b;}.cls-2{fill:#009fe3;}.cls-3{fill:#e94f2a;}</style></defs><title>Middel 11</title><g id="Laag_2" data-name="Laag 2"><g id="Layer_1" data-name="Layer 1"><path class="cls-1" d="M137.36,6a6,6,0,1,1-6-6,6,6,0,0,1,6,6"/><path class="cls-1" d="M115,28.36a6,6,0,1,1-6-6,6,6,0,0,1,6,6"/><path class="cls-1" d="M159.69,28.36a6,6,0,1,1-6-6,6,6,0,0,1,6,6"/><path class="cls-1" d="M137.36,50.57a6,6,0,1,1-6-5.95,6,6,0,0,1,6,5.95"/><path class="cls-2" d="M119.8,34.89a4.52,4.52,0,1,1-4.53,4.52,4.52,4.52,0,0,1,4.53-4.52"/><path class="cls-2" d="M119.8,13a4.52,4.52,0,1,1-4.53,4.52A4.53,4.53,0,0,1,119.8,13"/><path class="cls-2" d="M142.56,34.89A4.52,4.52,0,1,1,138,39.41a4.52,4.52,0,0,1,4.53-4.52"/><path class="cls-2" d="M142.56,13A4.52,4.52,0,1,1,138,17.47,4.52,4.52,0,0,1,142.56,13"/><path class="cls-3" d="M115,6a6,6,0,1,1-6-6,5.95,5.95,0,0,1,6,6"/><path class="cls-3" d="M159.69,6a6,6,0,1,1-6-6,6,6,0,0,1,6,6"/><path class="cls-3" d="M137.36,28.36a6,6,0,1,1-6-6,6,6,0,0,1,6,6"/><path class="cls-3" d="M115,50.57a6,6,0,1,1-6-5.95,6,6,0,0,1,6,5.95"/><path class="cls-3" d="M159.69,50.57a6,6,0,1,1-6-5.95,6,6,0,0,1,6,5.95"/><path class="cls-1" d="M14.24,95.86c-.27-1.52-.66-4.48-.7-5v-12h4.88v23.5H13.21L6,90,4.61,86.84l-.33.07.63,4v11.45H0V78.87H4.82l7.43,12.81,1.66,4.25Z"/><polygon class="cls-1" points="46.1 83.65 35.08 83.65 35.08 88.26 45.2 88.26 45.2 93.01 35.08 93.01 35.08 97.66 46.1 97.66 46.1 102.4 30.17 102.4 30.17 78.87 46.1 78.87 46.1 83.65"/><polygon class="cls-1" points="74.24 78.87 74.24 83.78 67.51 83.78 67.51 102.4 62.6 102.4 62.6 83.78 55.86 83.78 55.86 78.87 74.24 78.87"/><path class="cls-1" d="M103.88,102.37h-6L91.2,93.78H89.48v8.59H84.56V78.87h9.26c4.72,0,8.26,2.16,8.4,7.5,0,4.32-2,6.41-5.34,7.08Zm-10.06-13c2.16,0,3.52-.87,3.52-2.92s-1.46-2.69-3.52-2.62H89.48v5.55Z"/><path class="cls-1" d="M132.29,86.71v8.83c0,10.43-19.25,10.46-19.25,0V86.71c0-10.49,19.25-10.42,19.25,0m-14.41,8.83c0,4,9.53,3.92,9.53,0V86.71c0-4-9.53-3.95-9.53,0Z"/><path class="cls-1" d="M148.66,102.37h-4.85V78.87h9.26c11.25,0,11.12,16.23,0,16.23h-4.45Zm4.41-18.59h-4.41v6.74h4.41a3.38,3.38,0,1,0,0-6.74"/><path class="cls-1" d="M191.27,86.71v8.83c0,10.43-19.25,10.46-19.25,0V86.71c0-10.49,19.25-10.42,19.25,0m-14.41,8.83c0,4,9.53,3.92,9.53,0V86.71c0-4-9.53-3.95-9.53,0Z"/><polygon class="cls-1" points="217.75 102.37 202.72 102.37 202.72 78.87 207.6 78.87 207.6 97.46 217.75 97.46 217.75 102.37"/><rect class="cls-1" x="228.64" y="78.87" width="4.88" height="23.5"/><path class="cls-1" d="M257.05,90.69c1.49,2.33,5.84,9.29,7.43,11.68h-6l-4.72-8.29-4.35,8.29h-6l6.93-11.72-6.87-11.79h5.94l4.35,8.37,4.74-8.37h5.94Z"/><path class="cls-1" d="M0,114.78H1v12.31H0Z"/><path class="cls-1" d="M16.13,114.77v1H12v11.3H11v-11.3H6.9v-1Z"/><path class="cls-1" d="M39.42,118.24v5.37c0,5-9.75,5-9.75,0v-5.37C29.67,113.2,39.42,113.2,39.42,118.24Zm-8.73,5.37c0,3.68,7.68,3.68,7.7,0v-5.37c0-1.95-1.95-2.76-3.88-2.76s-3.82.85-3.82,2.76Z"/><path class="cls-1" d="M47,127.09h-1V114.78h4.64a3.86,3.86,0,1,1,0,7.7H47Zm3.62-11.28H47v5.65h3.62A2.83,2.83,0,1,0,50.59,115.81Z"/><path class="cls-1" d="M69,127.09V114.78h4.1c2.31,0,4.61,1.06,4.61,3.6v5.13c0,2.52-2.29,3.58-4.61,3.58Zm4.1-1c1.79,0,3.58-.73,3.58-2.55v-5.13c0-1.84-1.79-2.57-3.58-2.57H70v10.25Z"/><path class="cls-1" d="M91.53,115.79H84.84v4.62H91v1H84.84v4.61h6.69v1H83.81V114.77h7.72Z"/><path class="cls-1" d="M109.29,114.78h1.49l4.45,12.31h-1.08l-1.48-4.1H107.4l-1.44,4.1h-1.08Zm3,7.18L110,115.55,107.76,122Z"/><path class="cls-1" d="M128.84,116.87l-.92.45v0c-1.25-2.52-6.87-2.15-6.87,1.06v5.08c0,3.22,5.61,3.58,6.87,1.06l.92.45c-1.65,3.41-8.81,2.9-8.81-1.51V118.4C120,114.07,127.18,113.41,128.84,116.87Z"/><path class="cls-1" d="M142.85,121.46h-7.18v5.63h-1V114.78h1v5.65h7.18v-5.65h1v12.31h-1Z"/><path class="cls-1" d="M158.73,114.77v1h-4.1v11.3h-1v-11.3h-4.1v-1Z"/><path class="cls-1" d="M172.08,115.79h-6.69v4.62h6.17v1h-6.17v4.61h6.69v1h-7.72V114.77h7.72Z"/><path class="cls-1" d="M187.13,127.09H185.9l-4.14-5.21h-2.35v5.21h-1V114.78H183c2.31,0,4.07,1,4.12,3.58s-1.89,3.51-4.1,3.51h0ZM183,120.94c1.89,0,3.08-.63,3.08-2.57s-1.29-2.59-3.08-2.55h-3.63v5.13Z"/><path class="cls-1" d="M192.71,118.31c0-4.33,7.13-5,8.79-1.51l-.92.45c-1.23-2.52-6.85-2.15-6.85,1.06v5.16c0,3.67,7.18,3.67,7.18,0v-1.53h-3.77v-1h4.8v2.55c0,5.06-9.23,5.06-9.23,0Z"/><path class="cls-1" d="M217.12,127.09h-1.23l-4.14-5.21h-2.35v5.21h-1V114.78H213c2.31,0,4.07,1,4.12,3.58s-1.89,3.51-4.1,3.51h0ZM213,120.94c1.89,0,3.08-.63,3.08-2.57s-1.29-2.59-3.08-2.55h-3.63v5.13Z"/><path class="cls-1" d="M232.73,118.24v5.37c0,5-9.75,5-9.75,0v-5.37C223,113.2,232.73,113.2,232.73,118.24ZM224,123.61c0,3.68,7.68,3.68,7.7,0v-5.37c0-1.95-1.95-2.76-3.88-2.76s-3.82.85-3.82,2.76Z"/><path class="cls-1" d="M240.5,114.78l7,11.18V114.78h1v12.31h-1.53l-6.67-10.72v10.72h-1V114.78Z"/><path class="cls-1" d="M255.3,127.09V114.78h4.1c2.31,0,4.61,1.06,4.61,3.6v5.13c0,2.52-2.29,3.58-4.61,3.58Zm4.1-1c1.79,0,3.58-.73,3.58-2.55v-5.13c0-1.84-1.79-2.57-3.58-2.57h-3.08v10.25Z"/></g></g></svg>